<?xml version="1.0" standalone="no"?>
<!DOCTYPE svg PUBLIC "-//W3C//DTD SVG 20010904//EN"
 "http://www.w3.org/TR/2001/REC-SVG-20010904/DTD/svg10.dtd">
<svg version="1.0" xmlns="http://www.w3.org/2000/svg"
 width="1024.000000pt" height="1024.000000pt" viewBox="0 0 1024.000000 1024.000000"
 preserveAspectRatio="xMidYMid meet">

<g transform="translate(0.000000,1024.000000) scale(0.100000,-0.100000)"
fill="#000000" stroke="none">
<path d="M4745 8600 c-644 -51 -1281 -275 -1840 -644 -390 -258 -724 -590
-976 -972 -270 -407 -408 -712 -518 -1144 -80 -316 -111 -572 -111 -930 0
-377 37 -647 136 -998 152 -543 438 -1046 849 -1496 334 -366 762 -664 1241
-864 679 -285 1404 -369 2119 -247 418 72 878 239 1231 446 288 170 466 310
739 584 236 236 329 346 477 565 313 461 518 1029 590 1635 20 165 16 633 -6
813 -63 519 -235 1019 -508 1475 -254 424 -643 838 -1053 1120 -505 347 -1108
576 -1690 642 -163 19 -536 27 -680 15z m510 -450 c419 -38 792 -140 1154
-315 200 -97 303 -157 453 -262 689 -482 1151 -1184 1323 -2008 54 -259 60
-324 60 -635 0 -244 -4 -306 -23 -431 -92 -607 -310 -1114 -670 -1564 -108
-135 -378 -410 -493 -503 -468 -377 -1003 -611 -1581 -691 -253 -35 -410 -43
-611 -31 -364 22 -679 83 -973 188 -296 106 -649 294 -877 466 -649 489 -1076
1180 -1226 1986 -43 228 -55 388 -48 649 12 476 115 902 322 1328 172 357 367
626 651 903 250 243 472 400 794 564 397 202 819 321 1275 359 94 8 368 6 470
-3z"/>
<path d="M4780 7964 c-599 -69 -1059 -228 -1500 -519 -331 -218 -571 -446
-791 -751 -400 -558 -605 -1269 -560 -1947 18 -280 46 -438 123 -697 85 -287
263 -647 441 -889 230 -315 555 -612 876 -804 410 -245 831 -389 1311 -449
137 -17 525 -17 660 0 736 92 1328 380 1846 896 223 222 382 433 522 693 275
508 406 1157 347 1718 -96 904 -571 1703 -1318 2213 -334 228 -707 389 -1092
472 -234 50 -342 62 -590 65 -132 2 -256 1 -275 -1z m560 -410 c591 -75 1149
-357 1575 -795 149 -153 219 -239 325 -399 205 -310 356 -706 415 -1090 87
-571 -67 -1256 -395 -1755 -320 -487 -797 -869 -1327 -1064 -317 -116 -715
-181 -1008 -166 -733 40 -1354 312 -1856 814 -399 399 -630 849 -725 1411 -24
145 -27 192 -28 385 0 161 5 252 18 340 117 792 478 1394 1101 1832 564 397
1245 571 1905 487z"/>
<path d="M4930 7120 c-132 -17 -230 -62 -322 -149 -79 -74 -121 -143 -150
-248 l-23 -83 -555 0 c-517 0 -558 -2 -595 -19 -23 -10 -53 -33 -68 -50 -35
-42 -61 -130 -52 -181 8 -47 54 -123 89 -146 14 -9 26 -23 26 -30 0 -14 -45
-121 -260 -614 -56 -129 -123 -282 -147 -340 -25 -58 -75 -172 -110 -255 -36
-82 -94 -218 -128 -302 l-63 -152 28 -79 c94 -264 243 -435 472 -541 134 -63
201 -76 368 -75 128 0 156 4 235 28 134 41 252 107 346 194 126 117 190 218
249 390 l31 90 -20 33 c-11 19 -69 149 -129 289 -60 140 -144 334 -186 430
-43 96 -97 220 -121 275 -24 55 -68 157 -99 226 -107 246 -166 388 -166 402 0
8 11 22 25 31 14 9 37 34 51 56 l27 40 392 0 393 0 30 -53 c46 -82 116 -157
192 -209 l70 -47 3 -1316 2 -1315 -100 0 c-84 0 -108 -4 -151 -24 -88 -41
-134 -118 -134 -225 l0 -51 -106 0 c-127 0 -170 -11 -225 -59 -61 -52 -89
-118 -89 -213 l0 -78 1036 0 1037 0 -5 83 c-7 120 -55 205 -141 246 -36 18
-62 21 -159 21 l-115 0 -6 69 c-9 105 -49 169 -131 207 -43 20 -67 24 -148 24
l-98 0 0 1318 0 1318 64 42 c78 51 153 131 192 206 l29 56 397 0 397 0 12 -22
c6 -13 29 -41 51 -64 l39 -41 -31 -79 c-40 -99 -171 -404 -335 -779 -70 -159
-174 -400 -232 -535 -58 -135 -109 -250 -114 -256 -6 -8 3 -48 25 -109 135
-378 444 -604 826 -605 134 0 256 30 390 97 103 51 125 67 211 152 109 109
165 195 228 356 l41 101 -186 435 c-103 239 -203 475 -224 524 -21 50 -98 230
-173 402 l-134 311 28 21 c47 35 89 118 89 176 -1 89 -61 178 -139 204 -24 8
-200 11 -582 11 -513 0 -548 1 -553 18 -3 9 -10 37 -16 62 -34 130 -141 266
-262 333 -99 56 -226 81 -338 67z m167 -349 c83 -42 127 -116 127 -211 0 -124
-83 -219 -207 -236 -210 -29 -342 240 -194 394 77 80 182 101 274 53z m-1570
-1046 c50 -110 128 -285 173 -390 45 -104 138 -318 206 -474 68 -156 124 -287
124 -292 0 -5 -257 -9 -600 -9 -330 0 -600 3 -600 6 0 6 202 482 367 864 148
343 226 511 234 502 3 -4 47 -97 96 -207z m3161 -57 c66 -150 157 -361 202
-468 45 -107 125 -293 176 -414 52 -120 93 -220 91 -222 -2 -2 -274 -3 -604
-2 l-599 3 93 220 c83 194 385 883 474 1083 18 39 36 72 40 72 3 0 60 -123
127 -272z"/>
</g>
</svg>
